<?xml version="1.0" encoding="UTF-8" standalone="no"?>
<svg
   viewBox="0 0 16 16"
   version="1.1"
   id="svg1"
   sodipodi:docname="fan-symbolic16.svg"
   xml:space="preserve"
   inkscape:version="1.4.2 (ebf0e940d0, 2025-05-08)"
   xmlns:inkscape="http://www.inkscape.org/namespaces/inkscape"
   xmlns:sodipodi="http://sodipodi.sourceforge.net/DTD/sodipodi-0.dtd"
   xmlns="http://www.w3.org/2000/svg"
   xmlns:svg="http://www.w3.org/2000/svg"><sodipodi:namedview
     id="namedview1"
     pagecolor="#505050"
     bordercolor="#ffffff"
     borderopacity="1"
     inkscape:showpageshadow="0"
     inkscape:pageopacity="0"
     inkscape:pagecheckerboard="1"
     inkscape:deskcolor="#505050"
     inkscape:zoom="72.25"
     inkscape:cx="7.9930796"
     inkscape:cy="8"
     inkscape:window-width="2556"
     inkscape:window-height="1364"
     inkscape:window-x="0"
     inkscape:window-y="0"
     inkscape:window-maximized="1"
     inkscape:current-layer="svg1" /><defs
     id="defs3051"><style
       type="text/css"
       id="current-color-scheme">.ColorScheme-Text {color:#fcfcfc;}</style></defs><path
     d="M 7.9910135,7.3919121 A 0.59910135,0.59910135 0 0 0 7.3919121,7.9910135 0.59910135,0.59910135 0 0 0 7.9910135,8.5901148 0.59910135,0.59910135 0 0 0 8.5901148,7.9910135 0.59910135,0.59910135 0 0 0 7.9910135,7.3919121 M 8.2905642,2 C 10.98652,2 11.052421,4.1387918 9.6385422,4.8457314 9.0454319,5.1392911 8.7818273,5.7683475 8.667998,6.3255117 8.9555667,6.445332 9.2071892,6.6310534 9.3989016,6.870694 11.615577,5.6724913 14,6.1457813 14,8.2905642 14,10.98652 11.861208,11.04643 11.154269,9.6265602 10.854718,9.0334498 10.21967,8.7698452 9.6625062,8.656016 9.542686,8.9435846 9.3569646,9.1892162 9.117324,9.3929106 c 1.192212,2.2106844 0.7189216,4.5891164 -1.4258612,4.5891164 -2.6959561,0 -2.7498752,-2.144783 -1.335996,-2.851722 C 6.9425861,10.836745 7.2061907,10.21368 7.326011,9.6625062 7.0324513,9.542686 6.7748377,9.3509735 6.5831253,9.111333 4.3724413,10.297554 2,9.8302546 2,7.6914628 2,4.9955067 4.1328008,4.9296056 4.8397404,6.3494758 5.1392911,6.9425861 5.7683475,7.2001997 6.3255117,7.314029 6.439341,7.0264603 6.6310534,6.7748377 6.876685,6.5831253 5.6844733,4.3724413 6.1577633,2 8.2905642,2 Z"
     id="path1"
     style="fill:currentColor"
     class="ColorScheme-Text" /></svg>
