<?xml version="1.0" encoding="UTF-8" standalone="no"?>
<svg
   width="48"
   height="48"
   version="1.1"
   id="svg5"
   sodipodi:docname="yuzu.svg"
   inkscape:version="1.4.3 (unknown)"
   xmlns:inkscape="http://www.inkscape.org/namespaces/inkscape"
   xmlns:sodipodi="http://sodipodi.sourceforge.net/DTD/sodipodi-0.dtd"
   xmlns:xlink="http://www.w3.org/1999/xlink"
   xmlns="http://www.w3.org/2000/svg"
   xmlns:svg="http://www.w3.org/2000/svg">
  <defs
     id="defs5">
    <linearGradient
       id="linearGradient7"
       inkscape:collect="always">
      <stop
         style="stop-color:#333333;stop-opacity:1;"
         offset="0"
         id="stop7" />
      <stop
         style="stop-color:#626262;stop-opacity:1;"
         offset="1"
         id="stop8" />
    </linearGradient>
    <linearGradient
       inkscape:collect="always"
       xlink:href="#linearGradient7"
       id="linearGradient8"
       x1="31.508766"
       y1="60"
       x2="31.508768"
       y2="4.9824562"
       gradientUnits="userSpaceOnUse"
       gradientTransform="matrix(0.75080887,0,0,0.75047449,5.7389981,-7.0408409)" />
    <clipPath
       id="a">
      <path
         fill="none"
         d="M -43,-46.67 H 656.6 V 730.66 H -43 Z"
         id="path1" />
    </clipPath>
    <clipPath
       id="clipPath2">
      <path
         fill="none"
         d="M -43,-46.67 H 656.6 V 730.66 H -43 Z"
         id="path2-3" />
    </clipPath>
  </defs>
  <sodipodi:namedview
     id="namedview5"
     pagecolor="#ffffff"
     bordercolor="#000000"
     borderopacity="0.25"
     inkscape:showpageshadow="2"
     inkscape:pageopacity="0.0"
     inkscape:pagecheckerboard="0"
     inkscape:deskcolor="#d1d1d1"
     inkscape:zoom="7.0710678"
     inkscape:cx="28.001429"
     inkscape:cy="52.891587"
     inkscape:window-width="1920"
     inkscape:window-height="994"
     inkscape:window-x="0"
     inkscape:window-y="0"
     inkscape:window-maximized="1"
     inkscape:current-layer="svg5" />
  <ellipse
     style="opacity:0.2;stroke-width:0.737475"
     cx="29.396059"
     cy="17.343"
     id="circle1"
     transform="matrix(0.9659591,0.25869485,-0.25894329,0.96589253,0,0)"
     rx="20.653826"
     ry="20.644627" />
  <ellipse
     style="fill:url(#linearGradient8);stroke-width:0.737475"
     cx="29.396059"
     cy="16.605684"
     id="circle2"
     transform="matrix(0.9659591,0.25869485,-0.25894329,0.96589253,0,0)"
     rx="20.653826"
     ry="20.644627" />
  <path
     style="opacity:0.2;fill:#ffffff;stroke-width:0.737475"
     d="M 29.441249,3.7034248 A 20.643917,20.654538 89.999594 0 0 4.1447093,18.300879 20.643917,20.654538 89.999594 0 0 4.0632652,18.65475 20.643917,20.654538 89.999594 0 1 29.250328,4.4155852 20.643917,20.654538 89.999594 0 1 43.934153,29.332628 20.643917,20.654538 89.999594 0 0 44.046214,28.986956 20.643917,20.654538 89.999594 0 0 29.441249,3.7034248 Z"
     id="path4" />
  <g
     id="g1"
     transform="matrix(1.0493896,0,0,0.94444449,5.5644048,-0.24300515)">
    <g
       class="cls-2"
       clip-path="url(#a)"
       transform="matrix(0.05292872,0,0,0.05292872,1.3293912,7.5674408)"
       id="g2">
      <path
         fill="#ff3c28"
         d="m 340.81,138 v 544.08 c 150.26,0 272.06,-121.81 272.06,-272.06 C 612.87,259.77 491.07,138 340.81,138 M 394,197.55 a 219.06,219.06 0 0 1 0,424.94 z"
         id="path3-6" />
    </g>
    <g
       class="cls-2"
       clip-path="url(#a)"
       transform="matrix(0.05292872,0,0,0.05292872,1.3293912,7.5674408)"
       id="g3">
      <path
         fill="#0ab9e6"
         d="M 272.79,1.92 C 122.53,1.92 0.73,123.73 0.73,274 c 0,150.27 121.8,272.07 272.06,272.07 z m -53.14,59.59 v 425 A 219,219 0 0 1 118,119.18 217.5,217.5 0 0 1 219.65,61.51"
         id="path4-7" />
    </g>
  </g>
</svg>
