<?xml version="1.0" encoding="UTF-8" standalone="no"?>
<svg
   width="48"
   height="48"
   version="1.1"
   id="svg5"
   sodipodi:docname="zed.svg"
   inkscape:version="1.4.3 (unknown)"
   xmlns:inkscape="http://www.inkscape.org/namespaces/inkscape"
   xmlns:sodipodi="http://sodipodi.sourceforge.net/DTD/sodipodi-0.dtd"
   xmlns:xlink="http://www.w3.org/1999/xlink"
   xmlns="http://www.w3.org/2000/svg"
   xmlns:svg="http://www.w3.org/2000/svg">
  <defs
     id="defs5">
    <linearGradient
       id="linearGradient7"
       inkscape:collect="always">
      <stop
         style="stop-color:#394360;stop-opacity:1;"
         offset="0"
         id="stop7" />
      <stop
         style="stop-color:#4d5981;stop-opacity:1;"
         offset="1"
         id="stop8" />
    </linearGradient>
    <linearGradient
       inkscape:collect="always"
       xlink:href="#linearGradient7"
       id="linearGradient8"
       x1="31.508766"
       y1="60"
       x2="31.508768"
       y2="4.9824562"
       gradientUnits="userSpaceOnUse"
       gradientTransform="matrix(0.75080887,0,0,0.75047449,5.7389981,-7.0408409)" />
  </defs>
  <sodipodi:namedview
     id="namedview5"
     pagecolor="#ffffff"
     bordercolor="#000000"
     borderopacity="0.25"
     inkscape:showpageshadow="2"
     inkscape:pageopacity="0.0"
     inkscape:pagecheckerboard="0"
     inkscape:deskcolor="#d1d1d1"
     inkscape:zoom="7.0710678"
     inkscape:cx="28.001429"
     inkscape:cy="52.891587"
     inkscape:window-width="1920"
     inkscape:window-height="994"
     inkscape:window-x="0"
     inkscape:window-y="0"
     inkscape:window-maximized="1"
     inkscape:current-layer="svg5" />
  <ellipse
     style="opacity:0.2;stroke-width:0.737475"
     cx="29.396059"
     cy="17.343"
     id="circle1"
     transform="matrix(0.9659591,0.25869485,-0.25894329,0.96589253,0,0)"
     rx="20.653826"
     ry="20.644627" />
  <ellipse
     style="fill:url(#linearGradient8);stroke-width:0.737475"
     cx="29.396059"
     cy="16.605684"
     id="circle2"
     transform="matrix(0.9659591,0.25869485,-0.25894329,0.96589253,0,0)"
     rx="20.653826"
     ry="20.644627" />
  <path
     style="opacity:0.2;fill:#ffffff;stroke-width:0.737475"
     d="M 29.441249,3.7034248 A 20.643917,20.654538 89.999594 0 0 4.1447093,18.300879 20.643917,20.654538 89.999594 0 0 4.0632652,18.65475 20.643917,20.654538 89.999594 0 1 29.250328,4.4155852 20.643917,20.654538 89.999594 0 1 43.934153,29.332628 20.643917,20.654538 89.999594 0 0 44.046214,28.986956 20.643917,20.654538 89.999594 0 0 29.441249,3.7034248 Z"
     id="path4" />
  <g
     id="g10"
     transform="matrix(3.3009156,0,0,3.3009156,-3.6873956,-4.0784061)">
    <path
       d="m 4.95,4.533 h 7.33 c 0.203,0 0.367,0.163 0.367,0.366 v 7.33 a 0.365,0.365 0 0 1 -0.366,0.367 H 4.95 A 0.365,0.365 0 0 1 4.584,12.23 V 4.899 c 0,-0.203 0.163,-0.366 0.366,-0.366 z"
       style="fill:none;stroke:#ffffff;stroke-width:0.529156;stroke-dasharray:none"
       transform="matrix(0.91672,0,0,0.91672,0.493,0.666)"
       id="path1-7" />
    <path
       d="m 6.453,6.179 h 4.388 c 0.119,0 0.215,0.095 0.215,0.215 V 10.7 a 0.215,0.215 0 0 1 -0.215,0.215 H 6.453 A 0.215,0.215 0 0 1 6.238,10.7 V 6.394 c 0,-0.12 0.096,-0.215 0.215,-0.215 z"
       style="fill:none;stroke:#ffffff;stroke-width:0.529156;stroke-dasharray:none"
       transform="matrix(0.91672,0,0,0.91672,0.493,0.666)"
       id="path2" />
    <path
       d="m 7.707,7.56 h 1.91 c 0.052,0 0.094,0.042 0.094,0.094 V 9.529 A 0.093,0.093 0 0 1 9.617,9.622 H 7.707 A 0.093,0.093 0 0 1 7.613,9.529 V 7.654 C 7.613,7.602 7.655,7.56 7.707,7.56 Z"
       style="fill:none;stroke:#ffffff;stroke-width:0.529156;stroke-dasharray:none"
       transform="matrix(0.91672,0,0,0.91672,0.493,0.666)"
       id="path3" />
    <path
       d="M 4.629,12.396 12.585,4.7 q 0.002,-0.003 0.005,0 V 4.705 L 4.634,12.4 H 4.629 Z"
       style="fill:none;stroke:#ffffff;stroke-width:0.531495;stroke-dasharray:none"
       transform="matrix(0.91672,0,0,0.91672,0.493,0.666)"
       id="path10" />
  </g>
</svg>
