<?xml version="1.0" encoding="UTF-8" standalone="no"?>
<svg
   width="48"
   height="48"
   version="1.1"
   id="svg5"
   sodipodi:docname="zulip.svg"
   inkscape:version="1.4.3 (unknown)"
   xmlns:inkscape="http://www.inkscape.org/namespaces/inkscape"
   xmlns:sodipodi="http://sodipodi.sourceforge.net/DTD/sodipodi-0.dtd"
   xmlns:xlink="http://www.w3.org/1999/xlink"
   xmlns="http://www.w3.org/2000/svg"
   xmlns:svg="http://www.w3.org/2000/svg">
  <defs
     id="defs5">
    <linearGradient
       id="linearGradient7"
       inkscape:collect="always">
      <stop
         style="stop-color:#7b71ff;stop-opacity:1;"
         offset="0"
         id="stop7" />
      <stop
         style="stop-color:#4d5981;stop-opacity:1;"
         offset="1"
         id="stop8" />
    </linearGradient>
    <linearGradient
       inkscape:collect="always"
       xlink:href="#linearGradient7"
       id="linearGradient8"
       x1="31.508766"
       y1="60"
       x2="31.508768"
       y2="4.9824562"
       gradientUnits="userSpaceOnUse"
       gradientTransform="matrix(0.75080887,0,0,0.75047449,5.7389981,-7.0408409)" />
  </defs>
  <sodipodi:namedview
     id="namedview5"
     pagecolor="#ffffff"
     bordercolor="#000000"
     borderopacity="0.25"
     inkscape:showpageshadow="2"
     inkscape:pageopacity="0.0"
     inkscape:pagecheckerboard="0"
     inkscape:deskcolor="#d1d1d1"
     inkscape:zoom="7.0710678"
     inkscape:cx="28.001429"
     inkscape:cy="52.608745"
     inkscape:window-width="1920"
     inkscape:window-height="994"
     inkscape:window-x="0"
     inkscape:window-y="0"
     inkscape:window-maximized="1"
     inkscape:current-layer="svg5" />
  <ellipse
     style="opacity:0.2;stroke-width:0.737475"
     cx="29.396059"
     cy="17.343"
     id="circle1"
     transform="matrix(0.9659591,0.25869485,-0.25894329,0.96589253,0,0)"
     rx="20.653826"
     ry="20.644627" />
  <ellipse
     style="fill:url(#linearGradient8);stroke-width:0.737475"
     cx="29.396059"
     cy="16.605684"
     id="circle2"
     transform="matrix(0.9659591,0.25869485,-0.25894329,0.96589253,0,0)"
     rx="20.653826"
     ry="20.644627" />
  <path
     style="opacity:0.2;fill:#ffffff;stroke-width:0.737475"
     d="M 29.441249,3.7034248 A 20.643917,20.654538 89.999594 0 0 4.1447093,18.300879 20.643917,20.654538 89.999594 0 0 4.0632652,18.65475 20.643917,20.654538 89.999594 0 1 29.250328,4.4155852 20.643917,20.654538 89.999594 0 1 43.934153,29.332628 20.643917,20.654538 89.999594 0 0 44.046214,28.986956 20.643917,20.654538 89.999594 0 0 29.441249,3.7034248 Z"
     id="path4" />
  <path
     fill="#ffffff"
     d="m 22.573404,22.156456 -8.94715,7.771788 C 12.700091,30.635077 12.09546,31.797278 12.09546,33.108999 12.09546,35.2499 13.710147,37 15.681306,37 h 16.824809 c 1.974661,0 3.589345,-1.7501 3.589345,-3.891001 0,-2.140884 -1.618171,-3.884186 -3.589345,-3.884186 H 19.773927 c -0.192221,0 -0.314555,-0.217495 -0.220193,-0.397597 l 3.285279,-6.392107 c 0.122328,-0.186901 -0.09439,-0.407796 -0.262115,-0.271868 M 32.506115,11 H 15.684804 c -1.97117,0 -3.58585,1.7501 -3.58585,3.891 0,2.140884 1.61468,3.887586 3.58585,3.887586 H 28.42049 c 0.185234,0 0.304065,0.220895 0.213197,0.400997 l -3.28528,6.388707 c -0.115336,0.190301 0.10134,0.411196 0.265623,0.271861 l 8.95063,-7.771794 c 0.922669,-0.706829 1.5273,-1.86903 1.5273,-3.180755 C 36.09196,12.746701 34.477289,11 32.506115,11"
     id="path1"
     style="stroke-width:3.44628" />
</svg>
